<svg width="14" height="17" viewBox="0 0 14 17" fill="none" xmlns="http://www.w3.org/2000/svg">
<path d="M9.86425 9.97334L10.7042 10.9933C11.1459 10.2556 11.3803 9.36488 11.373 8.45285C11.3656 7.54083 11.1169 6.65587 10.6634 5.92876C10.5659 5.78222 10.4245 5.68871 10.2703 5.66878C10.116 5.64886 9.96159 5.70415 9.84091 5.82251C9.72024 5.94086 9.64323 6.11257 9.62682 6.29988C9.61041 6.48718 9.65595 6.67472 9.75341 6.82126C10.0271 7.27413 10.1838 7.81558 10.2036 8.37683C10.2233 8.93808 10.1052 9.49378 9.86425 9.97334Z" fill="#363C40"/>
<path d="M12.25 8.49999C12.2378 9.65807 11.8671 10.7682 11.2117 11.6096L12.04 12.6154C12.9126 11.5056 13.4048 10.0343 13.4167 8.49999C13.4059 7.57361 13.2242 6.66195 12.885 5.83206C12.5459 5.00218 12.0578 4.27519 11.4567 3.70457C11.3977 3.64504 11.3296 3.6002 11.2564 3.57261C11.1831 3.54502 11.1061 3.53522 11.0297 3.54377C10.9533 3.55232 10.8791 3.57905 10.8112 3.62244C10.7434 3.66583 10.6832 3.72503 10.6342 3.79666C10.5851 3.86828 10.5482 3.95093 10.5255 4.03989C10.5028 4.12884 10.4947 4.22236 10.5017 4.3151C10.5088 4.40784 10.5308 4.498 10.5665 4.58041C10.6023 4.66282 10.651 4.73587 10.71 4.79541C11.1778 5.23448 11.5589 5.79501 11.8254 6.43599C12.0919 7.07696 12.2369 7.78216 12.25 8.49999Z" fill="#363C40"/>
<path d="M8.75 8.62043V2.83335C8.7509 2.70353 8.72239 2.5759 8.6676 2.46442C8.61281 2.35293 8.53384 2.26188 8.43932 2.2012C8.3448 2.14053 8.23836 2.11256 8.13164 2.12036C8.02492 2.12816 7.92201 2.17143 7.83417 2.24543L5.25 4.39168L8.75 8.62043Z" fill="#363C40"/>
<path d="M2.76492 5.36209H1.16659C1.01188 5.36209 0.863503 5.43672 0.754106 5.56956C0.64471 5.7024 0.583252 5.88256 0.583252 6.07042V10.9296C0.583252 11.1175 0.64471 11.2976 0.754106 11.4305C0.863503 11.5633 1.01188 11.6379 1.16659 11.6379H4.08325L7.82242 14.7546C7.92484 14.8351 8.04459 14.877 8.16658 14.875C8.32129 14.875 8.46967 14.8004 8.57906 14.6675C8.68846 14.5347 8.74992 14.3545 8.74992 14.1667V12.6296L2.76492 5.36209Z" fill="#363C40"/>
<path d="M2.74745 2.33042C2.69306 2.26437 2.62849 2.21198 2.55742 2.17624C2.48636 2.1405 2.4102 2.1221 2.33328 2.1221C2.25636 2.1221 2.1802 2.1405 2.10913 2.17624C2.03807 2.21198 1.9735 2.26437 1.91911 2.33042C1.80927 2.4638 1.74756 2.6447 1.74756 2.83333C1.74756 3.02196 1.80927 3.20287 1.91911 3.33625L11.2524 14.6696C11.3067 14.736 11.3712 14.7887 11.4423 14.8246C11.5134 14.8606 11.5896 14.8791 11.6666 14.8791C11.7436 14.8791 11.8199 14.8606 11.8909 14.8246C11.962 14.7887 12.0265 14.736 12.0808 14.6696C12.1355 14.6037 12.1789 14.5254 12.2085 14.4391C12.2381 14.3528 12.2533 14.2602 12.2533 14.1667C12.2533 14.0732 12.2381 13.9806 12.2085 13.8943C12.1789 13.8079 12.1355 13.7296 12.0808 13.6637L2.74745 2.33042Z" fill="#363C40"/>
</svg>
