<svg width="33" height="33" viewBox="0 0 33 33" fill="none" xmlns="http://www.w3.org/2000/svg">
<path d="M16.5 0C7.38782 0 0 7.38742 0 16.4998C0 25.6119 7.38782 33 16.5 33C25.6127 33 33 25.6119 33 16.4998C33 7.38742 25.6129 0 16.5 0ZM14.785 21.399C14.785 22.4437 13.938 23.2907 12.8932 23.2907C11.8484 23.2907 11.0014 22.4437 11.0014 21.399V11.6005C11.0014 10.5557 11.8484 9.70872 12.8932 9.70872C13.938 9.70872 14.785 10.5557 14.785 11.6005V21.399ZM21.8849 21.399C21.8849 22.4437 21.0378 23.2907 19.9932 23.2907C18.9484 23.2907 18.1014 22.4437 18.1014 21.399V11.6005C18.1014 10.5557 18.9484 9.70872 19.9932 9.70872C21.0379 9.70872 21.8849 10.5557 21.8849 11.6005V21.399Z" fill="#363C40"/>
</svg>
