<svg width="40" height="40" viewBox="0 0 40 40" fill="none" xmlns="http://www.w3.org/2000/svg">
<g clip-path="url(#clip0_115_2)">
<path d="M20 0C8.95503 0 0.000183105 8.95444 0.000183105 19.9998C0.000183105 31.0448 8.95503 40 20 40C31.0456 40 39.9998 31.0448 39.9998 19.9998C39.9998 8.95444 31.0459 0 20 0ZM17.9212 25.9381C17.9212 27.2045 16.8945 28.2312 15.6282 28.2312C14.3618 28.2312 13.3351 27.2045 13.3351 25.9381V14.0612C13.3351 12.7948 14.3618 11.7681 15.6282 11.7681C16.8945 11.7681 17.9212 12.7948 17.9212 14.0612V25.9381ZM26.5271 25.9381C26.5271 27.2045 25.5003 28.2312 24.2341 28.2312C22.9677 28.2312 21.941 27.2045 21.941 25.9381V14.0612C21.941 12.7948 22.9677 11.7681 24.2341 11.7681C25.5005 11.7681 26.5271 12.7948 26.5271 14.0612V25.9381Z" fill="#363C40"/>
</g>
<defs>
<clipPath id="clip0_115_2">
<rect width="40" height="40" fill="white"/>
</clipPath>
</defs>
</svg>
