<svg width="34" height="32" viewBox="0 0 34 32" fill="none" xmlns="http://www.w3.org/2000/svg">
<g clip-path="url(#clip0_29_226)">
<path d="M17 0C7.61119 0 0 7.16347 0 16C0 24.8365 7.61119 32 17 32C26.3888 32 34 24.8365 34 16C34 7.16347 26.3888 0 17 0ZM23.215 17.4259L14.2284 22.3091C13.9512 22.4597 13.6187 22.5394 13.303 22.5394C12.3011 22.5394 11.4669 21.7723 11.4669 20.8293V11.0628C11.4669 10.1199 12.3011 9.35273 13.303 9.35273C13.6188 9.35273 13.9417 9.43235 14.219 9.58308L23.2103 14.4663C23.7788 14.7752 24.1205 15.3283 24.1205 15.946C24.1205 16.5637 23.7835 17.117 23.215 17.4259Z" fill="#363C40"/>
</g>
<defs>
<clipPath id="clip0_29_226">
<rect width="34" height="32" fill="white"/>
</clipPath>
</defs>
</svg>
