<svg width="40" height="40" viewBox="0 0 40 40" fill="none" xmlns="http://www.w3.org/2000/svg">
<g clip-path="url(#clip0_29_115)">
<path d="M20 0C8.95434 0 0 8.95434 0 20C0 31.0457 8.95434 40 20 40C31.0457 40 40 31.0457 40 20C40 8.95434 31.0457 0 20 0ZM27.3118 21.7824L16.7393 27.8863C16.4132 28.0746 16.022 28.1743 15.6506 28.1743C14.4719 28.1743 13.4905 27.2154 13.4905 26.0366V13.8286C13.4905 12.6498 14.4719 11.6909 15.6506 11.6909C16.0221 11.6909 16.402 11.7904 16.7282 11.9789L27.3063 18.0828C27.9751 18.469 28.3771 19.1604 28.3771 19.9325C28.3771 20.7046 27.9806 21.3962 27.3118 21.7824Z" fill="#363C40"/>
</g>
<defs>
<clipPath id="clip0_29_115">
<rect width="40" height="40" fill="white"/>
</clipPath>
</defs>
</svg>
