<svg width="14" height="17" viewBox="0 0 14 17" fill="none" xmlns="http://www.w3.org/2000/svg">
<path d="M10.6634 5.92876C10.5659 5.78222 10.4245 5.68871 10.2702 5.66878C10.116 5.64886 9.96154 5.70415 9.84087 5.82251C9.7202 5.94086 9.64318 6.11257 9.62677 6.29988C9.61036 6.48718 9.6559 6.67472 9.75337 6.82126C10.0481 7.30782 10.207 7.89601 10.207 8.50001C10.207 9.104 10.0481 9.69219 9.75337 10.1788C9.68382 10.2829 9.64003 10.4088 9.62708 10.5419C9.61412 10.675 9.63254 10.8099 9.68019 10.9308C9.72784 11.0517 9.80276 11.1537 9.89626 11.2249C9.98975 11.2962 10.098 11.3338 10.2084 11.3333C10.2955 11.3337 10.3816 11.3103 10.4604 11.265C10.5391 11.2196 10.6085 11.1534 10.6634 11.0713C11.1261 10.3318 11.3766 9.42869 11.3766 8.50001C11.3766 7.57132 11.1261 6.6682 10.6634 5.92876Z" fill="#363C40"/>
<path d="M11.4567 3.70457C11.3977 3.64504 11.3297 3.6002 11.2564 3.57261C11.1832 3.54502 11.1061 3.53522 11.0298 3.54377C10.9534 3.55232 10.8791 3.57905 10.8113 3.62244C10.7434 3.66583 10.6832 3.72503 10.6342 3.79666C10.5852 3.86828 10.5483 3.95093 10.5255 4.03989C10.5028 4.12884 10.4947 4.22236 10.5018 4.3151C10.5088 4.40784 10.5308 4.498 10.5666 4.58041C10.6023 4.66282 10.6511 4.73587 10.7101 4.79541C11.1779 5.23448 11.559 5.79501 11.8255 6.43599C12.0919 7.07696 12.237 7.78216 12.2501 8.49999C12.237 9.21782 12.0919 9.92302 11.8255 10.564C11.559 11.205 11.1779 11.7655 10.7101 12.2046C10.651 12.264 10.6022 12.3371 10.5664 12.4195C10.5306 12.5019 10.5085 12.5921 10.5015 12.6848C10.4944 12.7776 10.5025 12.8712 10.5253 12.9601C10.5481 13.0491 10.5851 13.1317 10.6342 13.2033C10.6891 13.2833 10.7577 13.3476 10.8354 13.3917C10.913 13.4357 10.9977 13.4585 11.0834 13.4583C11.2197 13.4586 11.3518 13.401 11.4567 13.2954C12.0578 12.7248 12.5459 11.9978 12.8851 11.1679C13.2243 10.338 13.406 9.42637 13.4167 8.49999C13.406 7.57361 13.2243 6.66195 12.8851 5.83206C12.5459 5.00218 12.0578 4.27519 11.4567 3.70457Z" fill="#363C40"/>
<path d="M8.44075 2.21001C8.35207 2.14784 8.25148 2.11511 8.14909 2.11511C8.04669 2.11511 7.9461 2.14784 7.85742 2.21001L4.08325 5.36209H1.16659C1.01188 5.36209 0.863503 5.43672 0.754106 5.56956C0.64471 5.7024 0.583252 5.88257 0.583252 6.07043V10.9296C0.583252 11.1175 0.64471 11.2976 0.754106 11.4305C0.863503 11.5633 1.01188 11.6379 1.16659 11.6379H4.08325L7.82242 14.7546C7.92485 14.8351 8.04459 14.877 8.16659 14.875C8.3213 14.875 8.46967 14.8004 8.57906 14.6675C8.68846 14.5347 8.74992 14.3545 8.74992 14.1667V2.83334C8.74964 2.7052 8.72073 2.57956 8.66629 2.46979C8.61185 2.36002 8.5339 2.27024 8.44075 2.21001Z" fill="#363C40"/>
</svg>
