<svg width="22" height="21" viewBox="0 0 22 21" fill="none" xmlns="http://www.w3.org/2000/svg">
<path d="M9.76414 0.0731563C4.69474 0.599991 0.616119 4.50613 0.0660214 9.25637C-0.487114 14.2162 2.48827 18.6521 7.00758 20.3403C7.33885 20.4451 7.67013 20.2355 7.67013 19.8105V18.1223C7.67013 18.1223 7.22944 18.2271 6.67934 18.2271C5.13542 18.2271 4.47288 16.961 4.36346 16.2216C4.25405 15.7996 4.03219 15.4852 3.70092 15.168C3.37268 15.0603 3.26023 15.0603 3.26023 14.9555C3.26023 14.7459 3.59151 14.7459 3.70092 14.7459C4.36346 14.7459 4.91356 15.4852 5.13543 15.7996C5.68552 16.6437 6.34807 16.8562 6.67934 16.8562C7.12003 16.8562 7.44826 16.7514 7.67013 16.6437C7.77954 15.9073 8.11081 15.168 8.77336 14.7459C6.23866 14.2162 4.36346 12.8452 4.36346 10.5225C4.36346 9.36116 4.91356 8.19979 5.68552 7.35569C5.57611 7.14321 5.4667 6.61638 5.4667 5.87707C5.4667 5.45502 5.4667 4.92818 5.68552 4.50613C5.68552 4.29365 5.90738 4.18887 6.0168 4.18887H6.12621C6.67934 4.29365 7.77954 4.61092 8.77336 5.5598C9.43287 5.35023 10.2048 5.24545 10.9768 5.24545C11.7487 5.24545 12.5207 5.35023 13.1802 5.5598C14.174 4.61092 15.3867 4.29365 15.9368 4.18887H16.0462C16.268 4.18887 16.3775 4.29365 16.4869 4.50613C16.4869 4.92818 16.4869 5.45502 16.4869 5.87707C16.4869 6.72116 16.3775 7.14321 16.2681 7.35569C17.04 8.19979 17.5901 9.25637 17.5901 10.5225C17.5901 12.8452 15.7149 14.2162 13.1802 14.7459C13.8428 15.2728 14.2834 16.2216 14.2834 17.1734V19.9182C14.2834 20.2355 14.6147 20.5498 15.0554 20.4451C19.134 18.8616 22 15.0603 22 10.6273C22 4.29365 16.3775 -0.666158 9.76414 0.0731563Z" fill="#546E82"/>
</svg>
